<svg
              width="34"
              height="17"
              viewBox="0 0 34 17"
              fill="none"
              xmlns="http://www.w3.org/2000/svg"
            >
              <path
                d="M25.5996 3.14805L27.8876 4.11068L19.0156 13.4947L17.3623 12.7987L17.8583 0.505341H20.1463L19.5276 9.95873L25.5996 3.14805Z"
                fill="#85C4FF"
              />
              <path
                d="M13.3651 0.5H15.6611L16.0238 13.004L14.3651 13.684L5.5918 4.20664L7.88779 3.26797L13.8878 10.1427L13.3651 0.5Z"
                fill="#85C4FF"
              />
              <path
                d="M3.25334 7.99596L4.216 5.70807L13.6 14.5801L12.904 16.2333L0 16.1827L0.962663 13.8974L10.064 14.068L3.25334 7.99596Z"
                fill="#85C4FF"
              />
              <path
                d="M23.2132 14.0626L32.3199 13.9853L33.2585 16.284L20.3492 16.1987L19.6719 14.5374L29.1465 5.76666L30.0852 8.06263L23.2132 14.0626Z"
                fill="#85C4FF"
              />
            </svg>